<?xml version="1.0" standalone="no"?>
<!DOCTYPE svg PUBLIC "-//W3C//DTD SVG 1.1//EN" "http://www.w3.org/Graphics/SVG/1.1/DTD/svg11.dtd" >
<svg xmlns="http://www.w3.org/2000/svg">
<metadata></metadata>
<defs>
<font id="vera_humana_95regular" horiz-adv-x="1098" >
<font-face units-per-em="2048" ascent="1638" descent="-410" />
<missing-glyph horiz-adv-x="548" />
<glyph horiz-adv-x="2048" />
<glyph horiz-adv-x="2048" />
<glyph unicode="&#xd;" horiz-adv-x="548" />
<glyph unicode=" "  horiz-adv-x="548" />
<glyph unicode="&#x09;" horiz-adv-x="548" />
<glyph unicode="&#xa0;" horiz-adv-x="548" />
<glyph unicode="!" horiz-adv-x="656" d="M218 94q0 46 32 78t78 32t78 -32t32 -78t-33 -79t-77 -33q-46 0 -78 33t-32 79zM232 1286q0 106 94 106q96 0 96 -106q0 -36 -2 -60l-74 -894h-38l-74 894q-2 24 -2 60z" />
<glyph unicode="&#x22;" horiz-adv-x="556" d="M96 860v540h98v-540h-98zM362 860v540h100v-540h-100z" />
<glyph unicode="#" horiz-adv-x="1538" d="M114 468l38 104h318l98 272h-344l34 104h346l168 472h124l-164 -472h258l168 472h124l-166 -472h308l-36 -104h-310l-96 -272h332l-36 -104h-332l-166 -468h-126l168 468h-262l-168 -468h-124l166 468h-320zM598 572h260l94 272h-260z" />
<glyph unicode="$" d="M150 94q36 82 54 156q124 -176 294 -176h6v544q-184 46 -267 125t-83 213q0 132 91 226t251 116v38q0 32 -4 104h18q12 -2 18 -2q18 0 50 4q-4 -72 -4 -138q174 0 298 -86q-48 -68 -76 -126q-50 132 -222 146v-482l46 -10q328 -72 328 -344q0 -156 -96 -261t-270 -137 v-48q0 -38 4 -158q-20 6 -44 6q-20 0 -44 -6q4 112 4 154v48q-198 0 -352 94zM280 1012q0 -172 224 -236v458q-98 -6 -161 -69t-63 -153zM574 80q106 14 168 86t62 182q0 102 -52 157t-178 97v-522z" />
<glyph unicode="%" horiz-adv-x="1538" d="M70 976q0 142 89 233t221 91q130 0 211 -84t81 -228q0 -154 -86 -245t-228 -91q-130 0 -209 89t-79 235zM216 1000q0 -150 35 -220t119 -70q154 0 154 250q0 282 -154 282t-154 -242zM256 -186l938 1672h90l-934 -1672h-94zM864 322q0 142 89 233t221 91q130 0 211 -84 t81 -228q0 -154 -86 -245t-228 -91q-130 0 -209 89t-79 235zM1018 346q0 -150 35 -220t119 -70q154 0 154 248q0 282 -154 282t-154 -240z" />
<glyph unicode="&#x26;" horiz-adv-x="1422" d="M138 308q0 138 88 242q80 100 266 200q-136 164 -136 314q0 140 84 223t224 83q116 0 185 -62t69 -168q0 -192 -262 -352q168 -236 356 -436q122 158 216 398q16 -16 43 -41t39 -37q-136 -218 -260 -370l140 -164q24 -28 134 -138q-56 10 -128 10t-122 -10 q-66 98 -132 172q-182 -196 -430 -196q-170 0 -272 92t-102 240zM296 362q0 -124 84 -212t208 -88q198 0 314 164q-196 236 -376 476q-230 -132 -230 -340zM486 1122q0 -124 138 -290q192 138 192 302q0 80 -42 130t-110 50q-80 0 -129 -53t-49 -139z" />
<glyph unicode="'" horiz-adv-x="288" d="M96 860v540h98v-540h-98z" />
<glyph unicode="(" horiz-adv-x="550" d="M134 566q0 490 310 822l42 -36q-228 -308 -228 -778q0 -508 226 -782l-38 -46q-312 330 -312 820z" />
<glyph unicode=")" horiz-adv-x="550" d="M68 -214q228 300 228 778q0 502 -228 782l38 46q314 -326 314 -804q0 -504 -310 -838z" />
<glyph unicode="*" horiz-adv-x="988" d="M154 1154q42 52 66 114q84 -62 246 -180q-10 152 -42 304q34 -6 64 -6q34 0 64 6q-20 -160 -28 -304q134 90 240 188q18 -50 64 -112q-140 -56 -278 -126q144 -64 284 -114q-48 -58 -66 -112q-72 52 -248 178q16 -178 44 -304q-32 6 -68 6q-30 0 -64 -6q22 132 32 304 q-134 -92 -240 -186q-20 60 -64 110q170 72 278 126q-140 70 -284 114z" />
<glyph unicode="+" horiz-adv-x="1666" d="M248 548v96h538v548h96v-548h536v-96h-536v-548h-96v548h-538z" />
<glyph unicode="," horiz-adv-x="548" d="M88 -350l140 478q26 92 92 92q74 0 74 -76q0 -30 -26 -76l-248 -432z" />
<glyph unicode="-" horiz-adv-x="666" d="M88 420v128h490v-128h-490z" />
<glyph unicode="." horiz-adv-x="548" d="M162 92q0 46 33 79t79 33t79 -33t33 -79q0 -44 -33 -77t-79 -33t-79 32t-33 78z" />
<glyph unicode="/" horiz-adv-x="562" d="M-42 -186l548 1686h88l-548 -1686h-88z" />
<glyph unicode="0" d="M82 650q0 682 466 682q468 0 468 -682q0 -680 -468 -680q-466 0 -466 680zM250 652q0 -320 68 -466q70 -152 232 -152q172 0 238 156q60 142 60 486q0 304 -71 448t-227 144q-164 0 -234 -152q-66 -142 -66 -464z" />
<glyph unicode="1" d="M138 1122q204 76 550 252q-18 -344 -18 -1028q0 -214 4 -346q-40 8 -90 8t-92 -8q20 466 20 908q0 154 -6 298l-304 -176q-24 56 -64 92z" />
<glyph unicode="2" d="M94 0v34q352 344 472 508q168 226 168 424q0 138 -63 216t-171 78q-184 0 -256 -236q-40 70 -80 112q130 196 370 196q178 0 277 -96t99 -264q0 -178 -156 -362q-124 -128 -446 -476q72 -2 198 -2q158 0 418 18q-4 -40 -4 -60q0 -44 6 -90q-272 4 -412 4q-136 0 -420 -4z " />
<glyph unicode="3" d="M124 36q24 78 30 162q86 -160 284 -160q298 0 298 348q0 128 -67 199t-183 71q-48 0 -114 -12q4 28 4 40q0 14 -4 42q14 -2 44 -2q264 0 264 286q0 120 -58 189t-154 69q-164 0 -224 -176q-44 70 -78 110q130 130 330 130q166 0 260 -84t94 -230q0 -220 -278 -324 q344 -12 344 -318q0 -182 -133 -295t-355 -113q-184 0 -304 68z" />
<glyph unicode="4" d="M38 370v30q260 348 644 926q44 -4 64 -4t64 4q-10 -160 -10 -588q0 -160 2 -250q22 -2 66 -2q60 0 116 6v-120q-76 0 -182 6q-2 -116 -2 -220q0 -94 6 -158q-24 4 -78 4t-82 -4q10 180 10 272v48q-2 34 -2 52q-204 4 -296 4q-166 0 -320 -6zM200 488h460v658 q-110 -120 -460 -658z" />
<glyph unicode="5" d="M124 40q22 84 36 166q90 -168 284 -168q136 0 220 98t84 266q0 142 -73 220t-203 78q-118 0 -206 -60l-26 6q12 102 12 224q0 244 -16 430q110 -14 264 -14q148 0 378 14q-6 -42 -6 -80q0 -24 4 -60q-58 10 -204 10h-328q-14 -186 -14 -374v-64q64 46 224 46 q170 0 267 -98t97 -270q0 -200 -135 -321t-365 -121q-176 0 -294 72z" />
<glyph unicode="6" d="M114 534q0 362 172 586q166 218 424 218q60 0 132 -22v-24q-2 -16 -2 -24q0 -14 4 -46q-66 48 -152 48q-162 0 -270 -168q-116 -176 -140 -486q132 170 338 170q170 0 270 -101t100 -269q0 -204 -119 -325t-319 -121q-204 0 -321 148t-117 416zM296 382q0 -156 73 -252 t185 -96q122 0 193 93t71 259q0 326 -252 326q-118 0 -194 -90t-76 -240z" />
<glyph unicode="7" d="M168 0q184 276 678 1150h-370q-188 0 -302 -14q2 26 2 78q0 58 -4 86q226 -10 544 -10q174 0 284 10v-50q-574 -978 -686 -1250q-26 4 -76 4q-48 0 -70 -4z" />
<glyph unicode="8" d="M108 360q0 272 306 378q-238 78 -238 274q0 146 102 233t272 87q178 0 275 -78t97 -218q0 -220 -234 -292q302 -74 302 -356q0 -192 -120 -305t-320 -113q-210 0 -326 103t-116 287zM286 362q0 -156 69 -240t195 -84q122 0 190 85t68 239q0 342 -248 342 q-274 0 -274 -342zM348 1018q0 -252 202 -252q100 0 157 64t57 182q0 254 -208 254t-208 -248z" />
<glyph unicode="9" d="M102 906q0 190 124 309t322 119q206 0 320 -145t114 -413q0 -368 -160 -586t-418 -218q-102 0 -192 34q0 6 2 22v22q0 22 -4 66q102 -78 210 -78q158 0 260 150q126 184 126 462q0 26 -2 52q-96 -178 -332 -178q-166 0 -268 104t-102 278zM262 906q0 -140 72 -221 t196 -81q126 0 196 87t70 249q0 160 -69 246t-191 86t-198 -100t-76 -266z" />
<glyph unicode=":" horiz-adv-x="652" d="M216 92q0 46 32 78t78 32t79 -32t33 -78q0 -44 -33 -77t-79 -33t-78 32t-32 78zM216 788q0 46 32 78t78 32t79 -32t33 -78q0 -44 -33 -78t-79 -34t-78 33t-32 79z" />
<glyph unicode=";" horiz-adv-x="652" d="M132 -348l140 480q26 90 90 90q32 0 55 -22t23 -56q0 -28 -26 -74l-248 -432zM228 788q0 44 33 77t79 33t78 -32t32 -78t-33 -79t-77 -33q-46 0 -79 33t-33 79z" />
<glyph unicode="&#x3c;" horiz-adv-x="1666" d="M258 556v80l1150 472v-106l-998 -406l998 -404v-106z" />
<glyph unicode="=" horiz-adv-x="1666" d="M248 366v96h1170v-96h-1170zM248 730v96h1170v-96h-1170z" />
<glyph unicode="&#x3e;" horiz-adv-x="1666" d="M258 86v106l998 404l-998 406v106l1150 -472v-80z" />
<glyph unicode="?" horiz-adv-x="770" d="M174 1320q120 72 234 72q130 0 208 -77t78 -209t-124 -262l-112 -118q-122 -128 -122 -206q0 -52 32 -84t84 -32q28 0 70 12l-16 -58q-34 -10 -68 -10q-106 0 -167 65t-61 171q0 112 124 242l132 138q90 94 90 186q0 80 -46 127t-122 47q-140 0 -194 -126zM298 92 q0 46 32 78t78 32t78 -32t32 -78q0 -44 -32 -77t-78 -33t-78 32t-32 78z" />
<glyph unicode="@" horiz-adv-x="2000" d="M114 524q0 408 330 680q262 216 644 216q332 0 544 -164q254 -196 254 -496q0 -342 -238 -530q-138 -108 -302 -108q-188 0 -188 148q0 4 2 14v14q-102 -176 -288 -176q-306 0 -306 320q0 226 133 380t321 154q184 0 248 -160l58 122h92l-136 -548q-16 -64 -16 -90 q0 -90 104 -90t206 80q200 158 200 476q0 244 -192 405t-498 161q-368 0 -610 -230q-248 -234 -248 -602q0 -332 238 -524q210 -170 532 -170q344 0 620 188l38 -54q-288 -216 -638 -216q-372 0 -608 180q-296 226 -296 620zM686 434q0 -110 54 -170t148 -60q104 0 185 69 t109 185l60 242q-38 194 -210 194q-152 0 -249 -132t-97 -328z" />
<glyph unicode="A" horiz-adv-x="1238" d="M-8 2q354 774 618 1390h38q280 -700 580 -1392q-54 10 -98 10q-46 0 -102 -10q-74 226 -170 454l-34 80q-82 4 -246 4q-166 0 -248 -4q-94 -214 -206 -534q-34 10 -66 10q-22 0 -66 -8zM364 622h62q50 -2 90 -2q30 0 120 2h148l-34 88q-26 68 -172 408z" />
<glyph unicode="B" horiz-adv-x="1192" d="M178 -4q20 192 20 552q0 564 -12 818q88 -4 96 -4q20 0 101 3t141 3q256 0 377 -72t121 -234q0 -262 -336 -328q374 -38 374 -330q0 -408 -540 -408q-50 0 -128 4t-108 4q-34 0 -106 -8zM352 484q0 -268 12 -398q76 -18 136 -18q176 0 277 84t101 230q0 308 -386 308 q-32 0 -140 -8v-198zM358 766q60 -6 112 -6q370 0 370 290q0 252 -330 252q-58 0 -142 -10q-10 -110 -10 -258v-268z" />
<glyph unicode="C" horiz-adv-x="1312" d="M82 682q0 322 201 516t541 194q238 0 430 -96q-32 -102 -32 -192q-138 214 -404 214q-250 0 -390 -167t-140 -471q0 -296 139 -463t377 -167q230 0 436 168l-12 -132q-152 -112 -448 -112q-332 0 -515 185t-183 523z" />
<glyph unicode="D" horiz-adv-x="1510" d="M178 0q8 214 8 682q0 480 -8 684q88 -4 150 -4q40 0 169 5t219 5q304 0 446 -96q256 -172 256 -552q0 -354 -201 -541t-587 -187q-46 0 -144 4t-148 4q4 0 -160 -4zM350 734q0 -366 8 -648q126 -10 210 -10q656 0 656 610q0 322 -134 464t-432 142q-162 0 -302 -10 q-6 -278 -6 -548z" />
<glyph unicode="E" horiz-adv-x="990" d="M178 0q16 246 16 698q0 408 -14 668q114 -6 244 -6q134 0 458 6v-28q-2 -20 -2 -30q0 -8 2 -28v-30q-228 20 -474 20h-46q-4 -238 -4 -422v-80h36q184 0 434 16q-4 -40 -4 -62q0 -20 4 -56q-88 16 -378 16h-94v-96q0 -88 4 -488h50q180 0 480 22v-30q-2 -20 -2 -30t2 -30 v-30q-108 4 -342 4q-242 0 -370 -4z" />
<glyph unicode="F" horiz-adv-x="986" d="M180 0q16 206 16 508q0 428 -16 858q112 -6 272 -6t442 6v-32q-2 -22 -2 -34q0 -10 2 -32v-32q-140 30 -482 30h-48q-6 -106 -6 -298v-200h160q178 0 338 14q-2 -18 -2 -58q0 -38 2 -58q-294 18 -440 18h-58v-460q0 -172 8 -224q-46 8 -100 8q-48 0 -86 -8z" />
<glyph unicode="G" horiz-adv-x="1460" d="M84 662q0 332 215 531t577 199q290 0 492 -128q-30 -92 -48 -176q-156 228 -476 228q-250 0 -406 -172t-156 -464q0 -288 162 -459t424 -171q168 0 324 68q4 136 4 196q0 134 -6 256q56 -8 84 -8t84 8q-6 -212 -6 -314q0 -116 8 -196q-284 -84 -532 -84q-344 0 -544 186 t-200 500z" />
<glyph unicode="H" horiz-adv-x="1532" d="M180 0q16 242 16 736q0 432 -14 630q42 -8 94 -8t92 8q-12 -98 -12 -508v-78q138 -2 414 -2q274 0 412 2v78q0 286 -18 508q42 -8 96 -8t94 8q-14 -286 -14 -630q0 -310 16 -736q-42 8 -98 8q-52 0 -92 -8q16 252 16 598v94q-206 6 -412 6t-414 -6v-94q0 -492 10 -598 q-42 8 -96 8q-50 0 -90 -8z" />
<glyph unicode="I" horiz-adv-x="550" d="M184 0q12 188 12 516v166q0 502 -12 684q40 -8 90 -8q52 0 94 8q-10 -132 -10 -392v-292v-172q-2 -110 -2 -158q0 -232 12 -352q-50 10 -90 10t-94 -10z" />
<glyph unicode="J" horiz-adv-x="550" d="M-50 -220q162 22 214 130q44 90 44 340q0 836 -16 1114q42 -6 80 -6q56 0 98 8q-8 -190 -8 -508q0 -222 4 -444t4 -224q0 -226 -94 -336t-314 -132z" />
<glyph unicode="K" horiz-adv-x="1160" d="M180 0q14 214 14 592q0 522 -14 772q60 -8 88 -8q42 0 96 10q-12 -128 -12 -324v-306q4 -6 10 -6q96 0 626 636q40 -8 88 -8q50 0 90 8q-60 -46 -336 -318l-294 -290q130 -164 650 -758q-66 10 -118 10t-112 -10q-148 202 -234 310l-230 284q-78 96 -140 98v-238 q0 -272 12 -454q-54 10 -94 10t-90 -10z" />
<glyph unicode="L" horiz-adv-x="982" d="M180 0q14 408 14 682q0 306 -14 684q42 -8 94 -8t92 8q-20 -494 -20 -710q0 -212 14 -562q40 -2 136 -2q266 0 408 32v-30q-2 -20 -2 -32q0 -10 2 -30v-32l-464 6q-140 0 -260 -6z" />
<glyph unicode="M" horiz-adv-x="1754" d="M70 0q70 310 206 1392h34q332 -668 562 -1086q256 454 592 1086h26q52 -506 158 -1392q-50 10 -90 10t-90 -10q-52 746 -104 998q-392 -656 -512 -996h-28q-42 144 -190 418l-312 576q-94 -664 -98 -996q-40 10 -74 10t-80 -10z" />
<glyph unicode="N" horiz-adv-x="1492" d="M164 0q26 540 26 1180v212h38q418 -484 982 -1052q4 136 4 176q0 490 -16 850q44 -8 64 -8q22 0 62 8q-16 -456 -16 -938q0 -170 4 -454h-26q-168 210 -512 572l-484 510q-4 -176 -4 -262q0 -306 14 -794q-36 10 -68 10q-28 0 -68 -10z" />
<glyph unicode="O" horiz-adv-x="1640" d="M82 680q0 324 201 517t537 193q340 0 538 -192t198 -518q0 -318 -202 -513t-534 -195q-342 0 -540 190t-198 518zM282 674q0 -302 139 -464t399 -162q258 0 398 164t140 470q0 310 -138 472t-400 162q-258 0 -398 -167t-140 -475z" />
<glyph unicode="P" horiz-adv-x="1100" d="M176 0q12 330 12 682q0 366 -12 684q58 -6 98 -6q48 0 159 7t175 7q216 0 332 -92t116 -258q0 -192 -142 -297t-412 -105q-88 0 -152 4v-286q0 -158 10 -338q-56 8 -84 8q-44 0 -100 -10zM348 698q60 -4 90 -4q430 0 430 312q0 158 -92 224t-294 66q-58 0 -124 -6 q-10 -216 -10 -412v-180z" />
<glyph unicode="Q" horiz-adv-x="1640" d="M82 680q0 324 201 517t537 193q340 0 538 -192t198 -518q0 -252 -129 -429t-371 -251q208 -160 486 -348q-76 -28 -150 -90q-244 236 -488 416q-74 -6 -116 -6q-310 0 -508 194t-198 514zM282 674q0 -302 139 -464t399 -162q258 0 398 164t140 470q0 310 -138 472 t-400 162q-258 0 -398 -167t-140 -475z" />
<glyph unicode="R" horiz-adv-x="1190" d="M182 0q14 232 14 682q0 434 -14 684q76 -4 92 -4q38 0 144 4t176 4q450 0 450 -324q0 -140 -103 -237t-297 -133q142 -188 536 -676q-66 10 -120 10q-52 0 -116 -10q-158 230 -250 348l-218 280q-34 44 -80 44q-10 0 -38 -4v-366q0 -116 10 -302q-50 10 -92 10 q-40 0 -94 -10zM358 730q24 -2 66 -2q446 0 446 294q0 270 -344 270q-60 0 -156 -6q-12 -88 -12 -204v-352z" />
<glyph unicode="S" horiz-adv-x="980" d="M84 80q36 106 44 212q94 -238 330 -238q128 0 207 79t79 215q0 96 -50 154q-44 52 -152 98l-162 68q-266 112 -266 336q0 170 117 278t305 108q158 0 304 -74q-30 -62 -56 -154q-106 154 -276 154q-110 0 -175 -67t-65 -181q0 -156 202 -244l162 -70q140 -60 202 -140 t62 -208q0 -194 -130 -313t-346 -119q-200 0 -336 106z" />
<glyph unicode="T" horiz-adv-x="1090" d="M40 1248q4 36 4 56q0 22 -4 62q228 -6 478 -6q254 0 532 6q-6 -26 -6 -58q0 -30 6 -60q-134 24 -354 24h-58q-10 -166 -10 -448q0 -364 10 -824q-28 4 -90 4t-96 -4q10 550 10 938v334h-54q-238 0 -368 -24z" />
<glyph unicode="U" horiz-adv-x="1500" d="M182 576q0 12 3 150t3 262q0 162 -6 378q40 -8 88 -8q54 0 94 10l-8 -728q0 -152 14 -230q20 -128 86 -208q112 -136 328 -136q218 0 330 140q64 80 84 220q14 94 14 314q0 338 -8 626q30 -8 62 -8q36 0 66 8q-10 -258 -10 -364v-52q0 -326 -10 -452q-18 -190 -72 -286 q-138 -238 -488 -238q-298 0 -434 145t-136 457z" />
<glyph unicode="V" horiz-adv-x="1238" d="M12 1366q46 -8 98 -8q56 0 98 8q202 -560 452 -1168q246 598 444 1168q30 -8 66 -8q38 0 68 8q-276 -656 -550 -1366q-36 10 -66 10t-66 -10q-302 792 -544 1366z" />
<glyph unicode="W" horiz-adv-x="1964" d="M34 1366q42 -8 96 -8t96 8q164 -606 346 -1176q208 570 376 1176q30 -8 64 -8q36 0 66 8q176 -576 384 -1156q198 568 348 1156q30 -8 64 -8q38 0 68 8q-128 -376 -456 -1366q-32 8 -70 8q-42 0 -72 -10q-148 510 -368 1120l-374 -1118q-40 10 -70 10t-70 -10 q-154 510 -428 1366z" />
<glyph unicode="X" horiz-adv-x="1118" d="M42 0q92 142 402 606l48 72l-36 64q-98 176 -372 624q48 -8 106 -8t104 8q182 -354 256 -468l46 -72l48 70q106 154 274 470q36 -12 72 -12q38 0 74 12q-242 -346 -388 -570l-34 -52l42 -70q62 -102 408 -674q-60 10 -108 10q-50 0 -110 -10q-116 236 -286 518l-48 80 l-48 -70q-112 -164 -304 -528q-40 10 -72 10q-34 0 -74 -10z" />
<glyph unicode="Y" horiz-adv-x="1072" d="M-18 1366q48 -8 110 -8t110 8q158 -358 374 -678q208 336 360 678q34 -8 74 -8q42 0 74 8q-252 -408 -454 -774q-4 -140 -4 -212q0 -190 12 -380q-50 10 -90 10q-42 0 -92 -10q10 164 10 286q0 124 -10 274q-274 472 -474 806z" />
<glyph unicode="Z" horiz-adv-x="1198" d="M16 0q468 660 860 1270q-52 2 -160 2q-270 0 -600 -22q4 40 4 58q0 22 -4 58q352 -8 530 -8q176 0 528 8q-494 -654 -880 -1264q160 -4 240 -4q286 0 604 22q-2 -20 -2 -60q0 -42 2 -62q-432 8 -638 8q-246 0 -484 -6z" />
<glyph unicode="[" horiz-adv-x="550" d="M150 -220q4 80 4 380v824q0 302 -4 382h72q48 -2 74 -2q24 0 76 2h76v-70q-30 8 -78 8h-92q-10 -152 -10 -504v-456q0 -346 10 -502h92q48 0 78 8v-70q-52 2 -154 2q-96 0 -144 -2z" />
<glyph unicode="\" horiz-adv-x="562" d="M-42 1500h88l548 -1686h-88z" />
<glyph unicode="]" horiz-adv-x="550" d="M70 -150q30 -8 78 -8h92q10 124 10 502v456q0 382 -10 504h-92q-48 0 -78 -8v70h78q50 -2 74 -2q26 0 74 2h72q-4 -74 -4 -374v-828q0 -302 4 -384q-46 2 -146 2t-152 -2v70z" />
<glyph unicode="^" horiz-adv-x="2000" d="M412 880l520 544h136l518 -544h-140l-446 444l-448 -444h-140z" />
<glyph unicode="_" horiz-adv-x="1000" d="M0 -374h1000v-98h-1000v98z" />
<glyph unicode="`" horiz-adv-x="1000" d="M224 1352q0 70 72 70q38 0 94 -58l282 -292h-66l-322 200q-60 38 -60 80z" />
<glyph unicode="a" horiz-adv-x="962" d="M70 228q0 210 232 260q110 22 222 44q94 20 126 48v42q0 134 -51 198t-171 64q-164 0 -258 -142h-16l4 106q134 112 322 112q168 0 242 -81t74 -255v-24l-8 -398q0 -68 10 -92q18 -40 78 -40q22 0 34 2l8 -40q-108 -32 -164 -32q-92 0 -110 116q-128 -134 -298 -134 q-276 0 -276 246zM234 254q0 -190 178 -190q112 0 200 88q34 34 34 86v258q-236 -40 -314 -80q-98 -50 -98 -162z" />
<glyph unicode="b" d="M144 0q6 148 6 500v568q0 314 -6 432q38 -8 86 -8q46 0 84 8q-14 -286 -14 -528q0 -30 2 -94v-98q122 182 320 182q186 0 295 -122t109 -332q0 -236 -122 -381t-320 -145q-158 0 -296 124q-52 -40 -106 -106h-38zM286 428q0 -376 274 -376q142 0 220 116t78 332 q0 382 -280 382q-292 0 -292 -454z" />
<glyph unicode="c" horiz-adv-x="926" d="M70 470q0 224 136 358t360 134q172 0 326 -80q-32 -74 -54 -172q-84 188 -272 188q-158 0 -246 -111t-88 -315q0 -196 95 -309t253 -113q160 0 302 144q-4 -56 -4 -74q0 -28 2 -40q-128 -100 -342 -100q-210 0 -339 134t-129 356z" />
<glyph unicode="d" horiz-adv-x="1120" d="M70 456q0 228 119 367t305 139q206 0 316 -184q0 100 2 220v140q0 188 -6 362q52 -14 86 -14q36 0 84 14q-8 -238 -8 -642q0 -474 12 -858q-46 10 -84 10t-84 -10q4 76 4 118q0 50 -2 76q-110 -212 -342 -212q-180 0 -291 129t-111 345zM236 462q0 -194 73 -299t203 -105 q144 0 223 113t79 329q0 186 -74 286t-206 100q-140 0 -219 -110t-79 -314z" />
<glyph unicode="e" horiz-adv-x="1012" d="M72 470q0 224 126 359t334 135q192 0 297 -113t105 -323v-22q-2 -14 -2 -22h-688v-6q0 -416 336 -416q172 0 308 134q-4 -52 -4 -76v-24q-156 -114 -340 -114q-210 0 -341 136t-131 352zM248 554h526v34q0 148 -67 231t-183 83q-114 0 -192 -92q-78 -98 -84 -256z" />
<glyph unicode="f" horiz-adv-x="552" d="M36 856v76q60 -4 84 -4q10 0 28 2h26q2 268 110 422q104 148 276 148q26 0 40 -2l-20 -156q-50 24 -114 24q-170 0 -170 -186q0 -82 16 -250h44q30 -2 44 -2q42 0 118 4v-82q-12 0 -202 10q0 -662 16 -860q-46 10 -88 10q-38 0 -88 -10q14 126 14 608v252q-46 0 -134 -4z " />
<glyph unicode="g" horiz-adv-x="914" d="M54 -262q0 196 222 270q-152 34 -152 168q0 106 158 186q-200 64 -200 268q0 152 107 244t291 92q54 0 131 -11t103 -11q52 0 194 16v-88q-66 6 -124 6h-40q78 -104 78 -228q0 -150 -97 -235t-265 -85q-26 0 -63 4t-47 4q-94 0 -94 -94q0 -110 156 -110q-2 0 36 2h76 q212 0 302 -54q100 -62 100 -218q0 -184 -140 -299t-370 -115q-168 0 -265 79t-97 209zM172 -238q0 -112 76 -182t200 -70q150 0 245 79t95 201q0 130 -90 174q-76 36 -288 36q-18 0 -62 -4q-176 -56 -176 -234zM240 646q0 -126 60 -195t164 -69q208 0 208 264t-208 264 q-100 0 -162 -73t-62 -191z" />
<glyph unicode="h" horiz-adv-x="1092" d="M150 0q10 452 10 750q0 356 -10 750q60 -8 84 -8q30 0 82 8q-8 -224 -8 -446q0 -82 4 -274q122 182 310 182q320 0 320 -348q0 -38 -3 -141t-3 -167q0 -38 8 -306q-44 10 -82 10q-36 0 -82 -10q10 366 10 532q0 172 -52 251t-176 79q-146 0 -214 -132q-40 -78 -40 -354 v-142q0 -72 6 -234q-46 10 -84 10q-36 0 -80 -10z" />
<glyph unicode="i" horiz-adv-x="496" d="M146 1292q0 42 30 71t72 29t72 -29t30 -71t-30 -72t-72 -30t-72 30t-30 72zM166 0q10 274 10 496q0 204 -10 448q38 -8 82 -8q48 0 82 8q-10 -246 -10 -448q0 -222 10 -496q-44 10 -82 10q-36 0 -82 -10z" />
<glyph unicode="j" horiz-adv-x="494" d="M-38 -504q142 16 182 140q28 90 28 388q0 636 -16 920q38 -8 86 -8q50 0 88 8q-6 -122 -6 -220l2 -810q0 -232 -72 -332q-78 -108 -280 -128zM140 1292q0 42 29 71t71 29t72 -29t30 -71t-30 -72t-72 -30t-71 30t-29 72z" />
<glyph unicode="k" horiz-adv-x="972" d="M154 0q10 386 10 750q0 432 -10 750q56 -8 84 -8t84 8q-12 -488 -12 -862v-68q0 -34 34 -34q32 0 140 100q128 118 278 308q46 -6 88 -6q44 0 88 6q-80 -54 -260 -224l-180 -170q146 -168 470 -550q-50 8 -112 8q-58 0 -104 -8q-366 496 -422 496q-20 0 -20 -28v-112 q0 -168 12 -356q-46 10 -84 10t-84 -10z" />
<glyph unicode="l" horiz-adv-x="466" d="M150 0q8 134 8 584v524q0 282 -8 392q52 -4 80 -4q30 0 86 4q-10 -184 -10 -616q0 -666 10 -884q-44 6 -86 6q-40 0 -80 -6z" />
<glyph unicode="m" horiz-adv-x="1654" d="M156 0q8 80 8 310v326q0 230 -8 308q34 -8 78 -8q42 0 76 8q0 -56 -4 -168q144 188 318 188q96 0 169 -54t99 -146q118 198 314 198q142 0 223 -87t81 -247q0 -12 -5 -131t-5 -225q0 -86 10 -272q-46 10 -84 10q-36 0 -82 -10q18 322 18 554q0 158 -53 231t-175 73 q-140 0 -190 -128q-42 -108 -42 -382q0 -182 6 -348q-42 6 -82 6t-80 -6q18 278 18 532q0 172 -46 248t-158 76q-116 0 -180 -80q-46 -58 -60 -168q-10 -74 -10 -260q0 -178 10 -348q-42 6 -82 6t-82 -6z" />
<glyph unicode="n" horiz-adv-x="1094" d="M150 0q8 112 8 348v142q0 312 -8 454q38 -8 82 -8q46 0 78 8q-4 -72 -4 -102q0 -12 2 -36v-36q114 194 314 194q320 0 320 -358q0 -50 -2 -147t-2 -143q0 -148 6 -316q-46 10 -82 10t-82 -10q12 210 12 566q0 296 -228 296q-118 0 -186 -86t-68 -312v-90q0 -272 6 -374 q-46 10 -84 10q-36 0 -82 -10z" />
<glyph unicode="o" horiz-adv-x="1092" d="M72 472q0 216 135 353t339 137q210 0 342 -136t132 -354q0 -220 -134 -355t-340 -135q-208 0 -341 136t-133 354zM242 474q0 -432 304 -432t304 418q0 442 -306 442q-302 0 -302 -428z" />
<glyph unicode="p" horiz-adv-x="1116" d="M150 944q30 -8 72 -8q46 0 86 8q-6 -80 -6 -180q118 202 336 202q194 0 299 -127t105 -369q0 -228 -117 -361t-305 -133q-202 0 -310 170v-240q0 -12 10 -452q-46 10 -84 10q-36 0 -82 -10q6 164 6 830q0 446 -10 660zM298 470q0 -418 286 -418q138 0 213 109t75 315 q0 196 -76 301t-212 105q-132 0 -209 -107t-77 -305z" />
<glyph unicode="q" horiz-adv-x="1116" d="M70 482q0 228 110 356t304 128q210 0 328 -202q0 100 -6 180q40 -8 86 -8q42 0 72 8q-10 -214 -10 -660q0 -664 6 -830q-44 10 -82 10q-34 0 -84 -10l8 692q-106 -170 -318 -170q-194 0 -304 133t-110 373zM240 480q0 -204 77 -317t207 -113q290 0 290 422q0 194 -77 302 t-207 108q-290 0 -290 -402z" />
<glyph unicode="r" horiz-adv-x="656" d="M148 2q10 236 10 652q0 182 -10 290q40 -8 86 -8t84 8q-12 -96 -12 -220q108 230 250 230q22 0 76 -10q-10 -52 -10 -152l-16 -10q-50 26 -96 26q-112 0 -161 -98t-49 -306q0 -254 10 -404q-38 8 -86 8q-36 0 -76 -6z" />
<glyph unicode="s" horiz-adv-x="712" d="M48 54q30 76 48 154q98 -152 244 -152q90 0 142 49t52 133q0 120 -158 164l-92 26q-114 32 -165 92t-51 166q0 120 84 198t222 78q144 0 250 -66q-30 -62 -42 -126q-114 132 -232 132q-76 0 -123 -47t-47 -121q0 -124 152 -168l136 -40q192 -56 192 -230q0 -136 -98 -225 t-256 -89q-156 0 -258 72z" />
<glyph unicode="t" horiz-adv-x="578" d="M24 860q4 36 4 52v16q-2 12 -2 16q64 -6 128 -6v66q0 64 -4 168q94 16 160 50q-6 -128 -6 -158v-132q110 0 260 12q-6 -30 -6 -66v-16q-108 6 -184 6q-50 0 -72 -2l-4 -100q0 -58 -4 -212t-4 -252q0 -134 38 -193t130 -59q52 0 140 42l14 -44q-102 -68 -218 -68 q-138 0 -196 65t-58 209q0 30 5 211t5 333v68h-22q-50 0 -104 -6z" />
<glyph unicode="u" d="M150 308q0 16 5 171t5 295q0 62 -4 170q34 -8 80 -8t86 8q-30 -284 -30 -564q0 -308 234 -308q166 0 230 144q36 80 36 482q0 126 -10 246q38 -8 84 -8q44 0 78 8q-8 -152 -8 -560q0 -232 6 -384q-40 4 -64 4q-44 0 -90 -6v36q0 30 -4 126q-100 -182 -320 -182 q-314 0 -314 330z" />
<glyph unicode="v" horiz-adv-x="914" d="M12 944q40 -8 90 -8q52 0 94 8q66 -246 294 -758q192 372 296 758q30 -8 64 -8q36 0 62 8q-324 -718 -396 -944q-22 4 -62 4q-38 0 -56 -4q-82 264 -386 944z" />
<glyph unicode="w" horiz-adv-x="1478" d="M16 944q40 -8 88 -8q50 0 90 8q58 -234 250 -732q144 320 262 732q30 -6 60 -6q28 0 58 6q132 -492 250 -730q106 218 278 730q44 -4 62 -4q20 0 60 4q-320 -720 -380 -944q-30 6 -60 6q-28 0 -58 -6q-20 124 -246 722q-184 -442 -252 -722q-18 4 -56 4t-58 -4 q-52 224 -348 944z" />
<glyph unicode="x" horiz-adv-x="940" d="M10 0q106 112 246 294l132 172l-94 132q-154 218 -262 346q46 -8 102 -8t102 8q42 -68 88 -132l162 -232l120 154q114 146 146 210q36 -6 72 -6q38 0 74 6q-154 -172 -246 -286l-118 -146l186 -260q36 -50 194 -252q-60 10 -106 10t-102 -10q-84 144 -194 294l-74 102 l-142 -178q-88 -110 -140 -218q-32 8 -72 8t-74 -8z" />
<glyph unicode="y" horiz-adv-x="934" d="M20 944q42 -8 98 -8q54 0 96 8q52 -182 214 -580l70 -172l72 166q152 352 224 586q30 -8 68 -8q36 0 66 8q-60 -118 -190 -412l-268 -606q-146 -330 -182 -472q-32 6 -68 6q-34 0 -70 -6q100 168 220 446l46 106l-84 220q-60 156 -312 718z" />
<glyph unicode="z" horiz-adv-x="900" d="M-4 0v42q436 538 632 816h-80q-218 0 -446 -26q2 12 2 40q0 20 -4 68q232 -4 336 -4q232 0 406 8v-40q-392 -494 -618 -820q410 6 608 30q-4 -32 -4 -46q0 -32 6 -68q-304 8 -460 8q-212 0 -378 -8z" />
<glyph unicode="{" horiz-adv-x="1000" d="M170 466v106h22q16 -2 22 -2q136 0 191 62t55 212v236q0 210 65 286t263 76h46v-104h-36q-134 0 -176 -52t-42 -196v-236q0 -154 -36 -224q-42 -80 -156 -112q114 -32 156 -112q36 -70 36 -224v-236q0 -144 40 -196t170 -52h22q14 2 22 2v-104h-46q-200 0 -266 78 q-62 72 -62 282v238q0 150 -55 212t-191 62h-22q-14 -2 -22 -2z" />
<glyph unicode="|" horiz-adv-x="1000" d="M448 -472v2000h106v-2000h-106z" />
<glyph unicode="}" horiz-adv-x="1000" d="M168 -300h38q132 0 174 51t42 195v236q0 154 36 224q40 80 156 112q-116 32 -156 112q-36 70 -36 224v236q0 146 -38 194q-42 56 -172 56h-22q-14 -2 -22 -2v104h46q198 0 266 -78q62 -74 62 -284v-236q0 -150 55 -212t191 -62q6 0 22 2h22v-106q-8 0 -22 2h-22 q-136 0 -191 -62t-55 -212v-238q0 -210 -62 -282q-66 -78 -266 -78h-46v104z" />
<glyph unicode="~" horiz-adv-x="1666" d="M174 460v110q206 142 378 142q98 0 282 -66q196 -70 282 -70q160 0 378 156v-110q-196 -140 -378 -140q-96 0 -282 66q-192 68 -282 68q-156 0 -378 -156z" />
<glyph unicode="&#xa1;" horiz-adv-x="656" d="M216 1280q0 46 33 78t77 32q46 0 79 -32t33 -78t-33 -78t-79 -32t-78 32t-32 78zM232 86q0 10 4 60l72 894h38l74 -894q2 -24 2 -60q0 -104 -94 -104q-96 0 -96 104z" />
<glyph unicode="&#xa2;" d="M122 490q0 208 116 337t322 149q0 98 -6 200h86q-4 -68 -10 -198q168 -4 312 -78q-34 -76 -54 -170q-82 182 -258 186v-848h12q144 0 290 146q-4 -56 -4 -74q0 -28 2 -40q-132 -100 -300 -100q0 -80 8 -210l-86 6q4 78 8 204q-206 16 -322 146t-116 344zM282 490 q0 -354 278 -416v840q-132 -20 -205 -130t-73 -294z" />
<glyph unicode="&#xa3;" d="M102 0q6 34 6 64q0 34 -6 66q172 0 232 72t60 260q0 110 -8 196q-90 -4 -200 -14v86q56 -8 144 -8h50q-12 136 -12 178q0 208 104 320t292 112q158 0 248 -104l-96 -118q-28 156 -182 156q-220 0 -220 -292q0 -64 16 -252q20 -2 62 -2q90 0 182 12v-82q-120 12 -200 12 h-34v-46q0 -328 -192 -478q354 4 690 20q-2 -24 -2 -76q0 -54 2 -82q-260 12 -478 12t-458 -12z" />
<glyph unicode="&#xa4;" horiz-adv-x="1212" d="M88 410l200 202q-88 120 -88 252q0 134 88 254l-200 200l64 64l200 -200q116 88 254 88q144 0 256 -88l200 200l64 -64l-200 -200q86 -116 86 -254q0 -136 -86 -252l200 -202l-64 -64l-200 200q-116 -88 -256 -88q-136 0 -254 88l-200 -200zM290 866q0 -130 94 -224 t224 -94t222 94t92 224t-91 222t-223 92q-130 0 -224 -93t-94 -221z" />
<glyph unicode="&#xa5;" d="M66 1302q64 -16 94 -16t92 14q118 -286 318 -580q184 292 308 582q56 -10 68 -10q26 0 82 10q-202 -298 -378 -602q202 0 354 8v-88q-30 0 -394 6v-170q42 -2 126 -2q122 0 268 10v-88q-108 6 -394 6v-66q0 -142 10 -316q-42 8 -76 8q-32 0 -78 -8q8 136 8 382h-104 q-152 0 -278 -6v88q196 -8 310 -8h72v170q-214 0 -382 -6v88q204 -8 334 -8q-112 190 -360 602z" />
<glyph unicode="&#xa6;" horiz-adv-x="1000" d="M448 -342v740h106v-740h-106zM448 658v740h106v-740h-106z" />
<glyph unicode="&#xa7;" horiz-adv-x="988" d="M98 624q0 142 148 260q-58 70 -58 178q0 146 96 238t254 92q184 0 278 -94q-36 -54 -70 -128q-74 160 -234 160q-98 0 -161 -60t-63 -152q0 -74 48 -120q42 -42 148 -86l154 -64q132 -54 186 -110q62 -62 62 -162q0 -120 -130 -246q78 -60 78 -192q0 -164 -117 -269 t-305 -105q-182 0 -278 70q20 74 32 176q116 -164 300 -164q114 0 188 66t74 164q0 76 -52 124q-44 42 -152 84l-146 56q-150 58 -215 121t-65 163zM198 698q0 -114 254 -218l126 -52q46 -18 146 -68q60 88 60 146q0 64 -54 110q-42 36 -156 90l-142 66q-46 20 -150 82 q-84 -60 -84 -156z" />
<glyph unicode="&#xa8;" horiz-adv-x="1000" d="M232 1222q0 40 29 69t67 29q40 0 69 -29t29 -69q0 -42 -29 -70t-69 -28t-68 28t-28 70zM574 1222q0 40 30 69t68 29t67 -29t29 -69q0 -42 -28 -70t-68 -28t-69 28t-29 70z" />
<glyph unicode="&#xa9;" horiz-adv-x="1666" d="M118 706q0 292 214 510q202 206 500 206q300 0 508 -208t208 -508t-206 -502q-218 -214 -510 -214t-503 211t-211 505zM196 706q0 -260 188 -448t448 -188q262 0 456 190q182 180 182 446t-186 452t-452 186q-264 0 -446 -184q-190 -194 -190 -454zM458 710 q0 200 106 319t276 119q132 0 221 -70t101 -184h-114q-38 164 -212 164q-118 0 -185 -92t-67 -262q0 -164 68 -255t184 -91q88 0 148 49t76 135h112q-10 -122 -106 -200t-236 -78q-172 0 -272 118t-100 328z" />
<glyph unicode="&#xaa;" horiz-adv-x="722" d="M44 868q0 154 178 190q84 14 170 30q68 12 86 30v26q0 176 -156 176q-124 0 -190 -100h-26l4 86q104 82 250 82q248 0 248 -218v-14q-2 -16 -2 -28l-6 -282q0 -44 8 -58q12 -24 52 -24q4 0 14 2h16l10 -40q-96 -24 -134 -24q-78 0 -90 72q-96 -84 -216 -84 q-216 0 -216 178zM90 464v100h560v-100h-560zM184 888q0 -126 124 -126q64 0 116 34t52 86v164q-170 -26 -222 -52q-70 -32 -70 -106z" />
<glyph unicode="&#xab;" horiz-adv-x="848" d="M72 472l322 472l42 -54l-236 -418l236 -418l-42 -54zM446 472l324 472l40 -54l-236 -418l236 -418l-40 -54z" />
<glyph unicode="&#xac;" horiz-adv-x="1666" d="M248 740v98h1170v-490h-94v392h-1076z" />
<glyph unicode="&#xad;" horiz-adv-x="666" d="M88 420v128h490v-128h-490z" />
<glyph unicode="&#xae;" horiz-adv-x="1666" d="M118 706q0 292 214 510q202 206 500 206q302 0 509 -209t207 -507q0 -300 -206 -502q-218 -214 -510 -214q-294 0 -504 212t-210 504zM196 706q0 -260 188 -448t448 -188q262 0 456 190q182 178 182 444q0 270 -182 452q-188 188 -456 188q-262 0 -444 -184 q-192 -194 -192 -454zM552 306v824h302q340 0 340 -228q0 -86 -52 -145t-142 -71l184 -380h-142l-174 362h-192v-362h-124zM676 750h154q126 0 181 31t55 113q0 152 -236 152h-154v-296z" />
<glyph unicode="&#xaf;" horiz-adv-x="1000" d="M248 1162v122h504v-122h-504z" />
<glyph unicode="&#xb0;" horiz-adv-x="658" d="M58 1146q0 114 80 193t192 79t191 -80t79 -192t-79 -192t-193 -80t-192 79t-78 193zM126 1146q0 -84 60 -143t144 -59q86 0 144 59t58 143t-59 144t-143 60t-144 -60t-60 -144z" />
<glyph unicode="&#xb1;" horiz-adv-x="1666" d="M248 50v96h1170v-96h-1170zM248 706v96h538v340h96v-340h536v-96h-536v-340h-96v340h-538z" />
<glyph unicode="&#xb2;" horiz-adv-x="724" d="M62 520v20q234 208 312 304q110 136 110 256q0 176 -154 176q-122 0 -168 -142q-28 42 -54 68q86 118 244 118q118 0 183 -57t65 -159q0 -110 -102 -218q-82 -76 -294 -286h130q116 0 276 10q-2 -12 -2 -36q0 -36 4 -54q-90 2 -272 2q-184 0 -278 -2z" />
<glyph unicode="&#xb3;" horiz-adv-x="724" d="M82 542q18 52 20 96q58 -96 188 -96q196 0 196 210q0 162 -166 162q-36 0 -74 -8q0 4 2 12v12v14q-2 8 -2 12q8 -2 28 -2q174 0 174 172q0 154 -140 154q-108 0 -146 -104q-36 48 -52 66q88 78 218 78q110 0 172 -51t62 -139q0 -130 -184 -194q226 -6 226 -190 q0 -110 -88 -178t-234 -68q-116 0 -200 42z" />
<glyph unicode="&#xb4;" horiz-adv-x="1000" d="M328 1072l282 292q56 58 94 58q72 0 72 -70q0 -42 -60 -80l-322 -200h-66z" />
<glyph unicode="&#xb5;" horiz-adv-x="950" d="M-108 -416l308 1456h136l-122 -578q-16 -76 -16 -136q0 -238 220 -238q252 0 340 408l118 544h136l-160 -752q-22 -104 -22 -130q0 -64 66 -64q16 0 36 2l-20 -108q-38 -10 -84 -10q-134 0 -134 142v14q-86 -158 -292 -158q-184 0 -262 152l-112 -544h-136z" />
<glyph unicode="&#xb6;" horiz-adv-x="1000" d="M82 1104q0 152 104 246t280 94h452v-68h-124v-1376h-80v1376h-184v-1376h-80v764q-170 8 -269 100t-99 240z" />
<glyph unicode="&#xb7;" horiz-adv-x="548" d="M172 664q0 42 30 72t72 30t72 -30t30 -72t-29 -72t-73 -30t-73 29t-29 73z" />
<glyph unicode="&#xb8;" horiz-adv-x="1000" d="M238 -366l30 66q130 -56 224 -56q118 0 118 90q0 88 -114 88q-24 0 -58 -6v184h62v-110q30 6 60 6q82 0 130 -42t48 -112q0 -170 -208 -170q-124 0 -292 62z" />
<glyph unicode="&#xb9;" horiz-adv-x="724" d="M92 1194q156 52 362 150q-12 -240 -12 -616q0 -128 4 -208q-20 4 -60 4t-60 -4q12 294 12 544q0 122 -4 180l-200 -106q-14 32 -42 56z" />
<glyph unicode="&#xba;" horiz-adv-x="818" d="M44 1038q0 154 104 253t262 99q162 0 263 -98t101 -254t-102 -253t-262 -97t-263 98t-103 252zM98 464v100h622v-100h-622zM190 1040q0 -296 220 -296q218 0 218 296q0 292 -220 292q-218 0 -218 -292z" />
<glyph unicode="&#xbb;" horiz-adv-x="848" d="M34 54l236 418l-236 418l42 54l322 -472l-322 -472zM410 54l236 418l-236 418l40 54l324 -472l-324 -472z" />
<glyph unicode="&#xbc;" horiz-adv-x="1716" d="M86 1200q138 46 346 142q-10 -188 -10 -576q0 -120 2 -194q-18 4 -56 4t-58 -4q12 274 12 508q0 60 -4 168l-192 -100q-18 34 -40 52zM358 -186l902 1672h98l-908 -1672h-92zM1050 208v16q156 184 406 518h20q14 -2 20 -2t20 2h20q-6 -80 -6 -328q0 -90 2 -140 q14 -2 40 -2t74 4v-68q-26 0 -114 4q-2 -66 -2 -124q0 -52 4 -88q-16 2 -50 2t-52 -2q8 80 8 152v28q-2 18 -2 28q-64 2 -186 2q-138 0 -202 -2zM1152 274h290v368q-64 -62 -290 -368z" />
<glyph unicode="&#xbd;" horiz-adv-x="1716" d="M86 1200q138 46 346 142q-10 -188 -10 -576q0 -120 2 -194q-18 4 -56 4t-58 -4q12 274 12 508q0 60 -4 168l-192 -100q-18 34 -40 52zM358 -186l902 1672h98l-908 -1672h-92zM1086 0v20q220 192 296 284q106 126 106 236q0 166 -148 166q-114 0 -160 -132q-26 40 -50 62 q82 110 232 110q112 0 175 -54t63 -148q0 -100 -98 -202q-78 -72 -282 -266q46 -2 124 -2q114 0 264 10q-2 -12 -2 -34q0 -34 4 -50q-86 2 -260 2q-176 0 -264 -2z" />
<glyph unicode="&#xbe;" horiz-adv-x="1718" d="M78 592q14 40 20 90q54 -88 178 -88q188 0 188 194q0 152 -158 152q-34 0 -72 -8q2 8 2 24q0 14 -2 22h28q166 0 166 160q0 144 -134 144q-102 0 -140 -98q-16 24 -50 62q82 72 208 72q104 0 164 -47t60 -129q0 -122 -176 -182q218 -6 218 -178q0 -102 -84 -165t-224 -63 q-112 0 -192 38zM358 -186l902 1672h98l-908 -1672h-92zM1050 208v16q156 184 406 518h20q14 -2 20 -2t20 2h20q-6 -80 -6 -328q0 -90 2 -140q14 -2 40 -2t74 4v-68q-26 0 -114 4q-2 -66 -2 -124q0 -52 4 -88q-16 2 -50 2t-52 -2q8 80 8 152v28q-2 18 -2 28q-64 2 -186 2 q-138 0 -202 -2zM1152 274h290v368q-64 -62 -290 -368z" />
<glyph unicode="&#xbf;" horiz-adv-x="770" d="M104 260q0 132 124 262l112 118q122 128 122 204q0 116 -114 116q-36 0 -72 -10l16 58q34 10 68 10q106 0 167 -65t61 -171q0 -112 -124 -242l-132 -138q-90 -94 -90 -188q0 -80 46 -126t122 -46q138 0 194 126l22 -122q-120 -72 -236 -72q-130 0 -208 77t-78 209z M282 1280q0 46 34 79t78 33q46 0 78 -33t32 -79t-32 -78t-78 -32t-79 32t-33 78z" />
<glyph unicode="&#xc0;" horiz-adv-x="1238" d="M-8 2q354 774 618 1390h38q280 -700 580 -1392q-54 10 -98 10q-46 0 -102 -10q-74 226 -170 454l-34 80q-82 4 -246 4q-166 0 -248 -4q-94 -214 -206 -534q-34 10 -66 10q-22 0 -66 -8zM344 1780q0 70 72 70q38 0 94 -58l282 -292h-66l-322 200q-60 38 -60 80zM364 622 h62q50 -2 90 -2q30 0 120 2h148l-34 88q-26 68 -172 408z" />
<glyph unicode="&#xc1;" horiz-adv-x="1238" d="M-8 2q354 774 618 1390h38q280 -700 580 -1392q-54 10 -98 10q-46 0 -102 -10q-74 226 -170 454l-34 80q-82 4 -246 4q-166 0 -248 -4q-94 -214 -206 -534q-34 10 -66 10q-22 0 -66 -8zM364 622h62q50 -2 90 -2q30 0 120 2h148l-34 88q-26 68 -172 408zM448 1500l282 292 q56 58 94 58q72 0 72 -70q0 -42 -60 -80l-322 -200h-66z" />
<glyph unicode="&#xc2;" horiz-adv-x="1238" d="M-8 2q354 774 618 1390h38q280 -700 580 -1392q-54 10 -98 10q-46 0 -102 -10q-74 226 -170 454l-34 80q-82 4 -246 4q-166 0 -248 -4q-94 -214 -206 -534q-34 10 -66 10q-22 0 -66 -8zM336 1500l226 340h116l226 -340h-56l-228 204l-228 -204h-56zM364 622h62 q50 -2 90 -2q30 0 120 2h148l-34 88q-26 68 -172 408z" />
<glyph unicode="&#xc3;" horiz-adv-x="1238" d="M-8 2q354 774 618 1390h38q280 -700 580 -1392q-54 10 -98 10q-46 0 -102 -10q-74 226 -170 454l-34 80q-82 4 -246 4q-166 0 -248 -4q-94 -214 -206 -534q-34 10 -66 10q-22 0 -66 -8zM340 1546q36 206 192 206q32 0 62 -8l108 -28q38 -10 54 -10q66 0 92 84h52 q-38 -200 -190 -200q-34 0 -72 10l-106 28q-22 6 -48 6q-70 0 -94 -88h-50zM364 622h62q50 -2 90 -2q30 0 120 2h148l-34 88q-26 68 -172 408z" />
<glyph unicode="&#xc4;" horiz-adv-x="1238" d="M-8 2q354 774 618 1390h38q280 -700 580 -1392q-54 10 -98 10q-46 0 -102 -10q-74 226 -170 454l-34 80q-82 4 -246 4q-166 0 -248 -4q-94 -214 -206 -534q-34 10 -66 10q-22 0 -66 -8zM352 1650q0 40 29 69t67 29q40 0 69 -29t29 -69q0 -42 -29 -70t-69 -28t-68 28 t-28 70zM364 622h62q50 -2 90 -2q30 0 120 2h148l-34 88q-26 68 -172 408zM694 1650q0 40 30 69t68 29t67 -29t29 -69q0 -42 -28 -70t-68 -28t-69 28t-29 70z" />
<glyph unicode="&#xc5;" horiz-adv-x="1238" d="M-8 2q354 774 618 1390h38q280 -700 580 -1392q-54 10 -98 10q-46 0 -102 -10q-74 226 -170 454l-34 80q-82 4 -246 4q-166 0 -248 -4q-94 -214 -206 -534q-34 10 -66 10q-22 0 -66 -8zM364 622h62q50 -2 90 -2q30 0 120 2h148l-34 88q-26 68 -172 408zM396 1682 q0 104 71 174t173 70q106 0 170 -62t64 -164q0 -104 -71 -174t-175 -70q-102 0 -167 64t-65 162zM484 1682q0 -164 148 -164q152 0 152 184q0 78 -39 122t-105 44q-70 0 -113 -50t-43 -136z" />
<glyph unicode="&#xc6;" horiz-adv-x="1564" d="M-58 0q264 404 870 1366q106 -6 252 -6q140 0 416 6v-28q-2 -20 -2 -30q0 -8 2 -28v-30q-214 20 -444 20h-42l-6 -502h34q174 0 408 16q-2 -18 -2 -56q0 -40 2 -62q-82 16 -354 16h-88v-96q0 -88 4 -488h46q168 0 452 22v-30q-2 -20 -2 -30t2 -30v-30q-282 6 -392 6 q-152 0 -282 -6q16 214 16 506q-70 4 -220 4q-156 0 -238 -4l-44 -68q-188 -290 -234 -438h-154zM428 594q132 -4 200 -4t204 4v644q-330 -492 -404 -644z" />
<glyph unicode="&#xc7;" horiz-adv-x="1312" d="M82 682q0 322 201 516t541 194q238 0 430 -96q-32 -102 -32 -192q-138 214 -404 214q-250 0 -390 -167t-140 -471q0 -296 139 -463t377 -167q230 0 436 168l-12 -132q-152 -112 -448 -112q-332 0 -515 185t-183 523zM502 -366l30 66q130 -56 224 -56q118 0 118 90 q0 88 -114 88q-24 0 -58 -6v184h62v-110q30 6 60 6q82 0 130 -42t48 -112q0 -170 -208 -170q-124 0 -292 62z" />
<glyph unicode="&#xc8;" horiz-adv-x="990" d="M178 0q16 246 16 698q0 408 -14 668q114 -6 244 -6q134 0 458 6v-28q-2 -20 -2 -30q0 -8 2 -28v-30q-228 20 -474 20h-46q-4 -238 -4 -422v-80h36q184 0 434 16q-4 -40 -4 -62q0 -20 4 -56q-88 16 -378 16h-94v-96q0 -88 4 -488h50q180 0 480 22v-30q-2 -20 -2 -30t2 -30 v-30q-108 4 -342 4q-242 0 -370 -4zM254 1780q0 70 72 70q38 0 94 -58l282 -292h-66l-322 200q-60 38 -60 80z" />
<glyph unicode="&#xc9;" horiz-adv-x="990" d="M178 0q16 246 16 698q0 408 -14 668q114 -6 244 -6q134 0 458 6v-28q-2 -20 -2 -30q0 -8 2 -28v-30q-228 20 -474 20h-46q-4 -238 -4 -422v-80h36q184 0 434 16q-4 -40 -4 -62q0 -20 4 -56q-88 16 -378 16h-94v-96q0 -88 4 -488h50q180 0 480 22v-30q-2 -20 -2 -30t2 -30 v-30q-108 4 -342 4q-242 0 -370 -4zM358 1500l282 292q56 58 94 58q72 0 72 -70q0 -42 -60 -80l-322 -200h-66z" />
<glyph unicode="&#xca;" horiz-adv-x="990" d="M178 0q16 246 16 698q0 408 -14 668q114 -6 244 -6q134 0 458 6v-28q-2 -20 -2 -30q0 -8 2 -28v-30q-228 20 -474 20h-46q-4 -238 -4 -422v-80h36q184 0 434 16q-4 -40 -4 -62q0 -20 4 -56q-88 16 -378 16h-94v-96q0 -88 4 -488h50q180 0 480 22v-30q-2 -20 -2 -30t2 -30 v-30q-108 4 -342 4q-242 0 -370 -4zM246 1500l226 340h116l226 -340h-56l-228 204l-228 -204h-56z" />
<glyph unicode="&#xcb;" horiz-adv-x="990" d="M178 0q16 246 16 698q0 408 -14 668q114 -6 244 -6q134 0 458 6v-28q-2 -20 -2 -30q0 -8 2 -28v-30q-228 20 -474 20h-46q-4 -238 -4 -422v-80h36q184 0 434 16q-4 -40 -4 -62q0 -20 4 -56q-88 16 -378 16h-94v-96q0 -88 4 -488h50q180 0 480 22v-30q-2 -20 -2 -30t2 -30 v-30q-108 4 -342 4q-242 0 -370 -4zM262 1650q0 40 29 69t67 29q40 0 69 -29t29 -69q0 -42 -29 -70t-69 -28t-68 28t-28 70zM604 1650q0 40 30 69t68 29t67 -29t29 -69q0 -42 -28 -70t-68 -28t-69 28t-29 70z" />
<glyph unicode="&#xcc;" horiz-adv-x="550" d="M0 1780q0 70 72 70q38 0 94 -58l282 -292h-66l-322 200q-60 38 -60 80zM184 0q12 188 12 516v166q0 502 -12 684q40 -8 90 -8q52 0 94 8q-10 -132 -10 -392v-292v-172q-2 -110 -2 -158q0 -232 12 -352q-50 10 -90 10t-94 -10z" />
<glyph unicode="&#xcd;" horiz-adv-x="550" d="M104 1500l282 292q56 58 94 58q72 0 72 -70q0 -42 -60 -80l-322 -200h-66zM184 0q12 188 12 516v166q0 502 -12 684q40 -8 90 -8q52 0 94 8q-10 -132 -10 -392v-292v-172q-2 -110 -2 -158q0 -232 12 -352q-50 10 -90 10t-94 -10z" />
<glyph unicode="&#xce;" horiz-adv-x="550" d="M-8 1500l226 340h116l226 -340h-56l-228 204l-228 -204h-56zM184 0q12 188 12 516v166q0 502 -12 684q40 -8 90 -8q52 0 94 8q-10 -132 -10 -392v-292v-172q-2 -110 -2 -158q0 -232 12 -352q-50 10 -90 10t-94 -10z" />
<glyph unicode="&#xcf;" horiz-adv-x="550" d="M8 1650q0 40 29 69t67 29q40 0 69 -29t29 -69q0 -42 -29 -70t-69 -28t-68 28t-28 70zM184 0q12 188 12 516v166q0 502 -12 684q40 -8 90 -8q52 0 94 8q-10 -132 -10 -392v-292v-172q-2 -110 -2 -158q0 -232 12 -352q-50 10 -90 10t-94 -10zM350 1650q0 40 30 69t68 29 t67 -29t29 -69q0 -42 -28 -70t-68 -28t-69 28t-29 70z" />
<glyph unicode="&#xd0;" horiz-adv-x="1514" d="M0 692v90q52 -6 134 -6h58q0 342 -10 590q88 -4 152 -4q40 0 168 5t218 5q306 0 448 -96q256 -172 256 -552q0 -354 -201 -541t-587 -187q-46 0 -144 4t-148 4q2 0 -162 -4q10 274 10 566v134q-88 0 -192 -8zM352 700q2 -274 10 -614q126 -10 210 -10q656 0 656 610 q0 322 -134 464t-432 142q-160 0 -300 -10l-8 -506h116q168 0 276 6v-90q-102 4 -394 8z" />
<glyph unicode="&#xd1;" horiz-adv-x="1492" d="M164 0q26 540 26 1180v212h38q418 -484 982 -1052q4 136 4 176q0 490 -16 850q44 -8 64 -8q22 0 62 8q-16 -456 -16 -938q0 -170 4 -454h-26q-168 210 -512 572l-484 510q-4 -176 -4 -262q0 -306 14 -794q-36 10 -68 10q-28 0 -68 -10zM466 1546q36 206 192 206 q32 0 62 -8l108 -28q38 -10 54 -10q66 0 92 84h52q-38 -200 -190 -200q-34 0 -72 10l-106 28q-22 6 -48 6q-70 0 -94 -88h-50z" />
<glyph unicode="&#xd2;" horiz-adv-x="1640" d="M82 680q0 324 201 517t537 193q340 0 538 -192t198 -518q0 -318 -202 -513t-534 -195q-342 0 -540 190t-198 518zM282 674q0 -302 139 -464t399 -162q258 0 398 164t140 470q0 310 -138 472t-400 162q-258 0 -398 -167t-140 -475zM544 1780q0 70 72 70q38 0 94 -58 l282 -292h-66l-322 200q-60 38 -60 80z" />
<glyph unicode="&#xd3;" horiz-adv-x="1640" d="M82 680q0 324 201 517t537 193q340 0 538 -192t198 -518q0 -318 -202 -513t-534 -195q-342 0 -540 190t-198 518zM282 674q0 -302 139 -464t399 -162q258 0 398 164t140 470q0 310 -138 472t-400 162q-258 0 -398 -167t-140 -475zM648 1500l282 292q56 58 94 58 q72 0 72 -70q0 -42 -60 -80l-322 -200h-66z" />
<glyph unicode="&#xd4;" horiz-adv-x="1640" d="M82 680q0 324 201 517t537 193q340 0 538 -192t198 -518q0 -318 -202 -513t-534 -195q-342 0 -540 190t-198 518zM282 674q0 -302 139 -464t399 -162q258 0 398 164t140 470q0 310 -138 472t-400 162q-258 0 -398 -167t-140 -475zM536 1500l226 340h116l226 -340h-56 l-228 204l-228 -204h-56z" />
<glyph unicode="&#xd5;" horiz-adv-x="1640" d="M82 680q0 324 201 517t537 193q340 0 538 -192t198 -518q0 -318 -202 -513t-534 -195q-342 0 -540 190t-198 518zM282 674q0 -302 139 -464t399 -162q258 0 398 164t140 470q0 310 -138 472t-400 162q-258 0 -398 -167t-140 -475zM540 1546q36 206 192 206q32 0 62 -8 l108 -28q38 -10 54 -10q66 0 92 84h52q-38 -200 -190 -200q-34 0 -72 10l-106 28q-22 6 -48 6q-70 0 -94 -88h-50z" />
<glyph unicode="&#xd6;" horiz-adv-x="1640" d="M82 680q0 324 201 517t537 193q340 0 538 -192t198 -518q0 -318 -202 -513t-534 -195q-342 0 -540 190t-198 518zM282 674q0 -302 139 -464t399 -162q258 0 398 164t140 470q0 310 -138 472t-400 162q-258 0 -398 -167t-140 -475zM552 1650q0 40 29 69t67 29q40 0 69 -29 t29 -69q0 -42 -29 -70t-69 -28t-68 28t-28 70zM894 1650q0 40 30 69t68 29t67 -29t29 -69q0 -42 -28 -70t-68 -28t-69 28t-29 70z" />
<glyph unicode="&#xd7;" horiz-adv-x="1666" d="M298 126l470 470l-470 470l68 68l470 -470l470 470l68 -68l-470 -470l470 -470l-68 -68l-470 470l-470 -470z" />
<glyph unicode="&#xd8;" horiz-adv-x="1640" d="M82 -56q108 108 200 214q-200 206 -200 522q0 324 201 517t535 193q270 0 450 -124q92 94 172 204q34 -42 82 -68q-74 -72 -178 -194q212 -194 212 -528q0 -322 -204 -515t-552 -193q-266 0 -450 130q-110 -114 -192 -230q-26 48 -76 72zM280 666q0 -236 102 -406 l816 914q-130 142 -380 142q-258 0 -398 -168t-140 -482zM426 200q136 -152 392 -152q258 0 398 164t140 470q0 270 -110 430z" />
<glyph unicode="&#xd9;" horiz-adv-x="1500" d="M182 576q0 12 3 150t3 262q0 162 -6 378q40 -8 88 -8q54 0 94 10l-8 -728q0 -152 14 -230q20 -128 86 -208q112 -136 328 -136q218 0 330 140q64 80 84 220q14 94 14 314q0 338 -8 626q30 -8 62 -8q36 0 66 8q-10 -258 -10 -364v-52q0 -326 -10 -452q-18 -190 -72 -286 q-138 -238 -488 -238q-298 0 -434 145t-136 457zM494 1780q0 70 72 70q38 0 94 -58l282 -292h-66l-322 200q-60 38 -60 80z" />
<glyph unicode="&#xda;" horiz-adv-x="1500" d="M182 576q0 12 3 150t3 262q0 162 -6 378q40 -8 88 -8q54 0 94 10l-8 -728q0 -152 14 -230q20 -128 86 -208q112 -136 328 -136q218 0 330 140q64 80 84 220q14 94 14 314q0 338 -8 626q30 -8 62 -8q36 0 66 8q-10 -258 -10 -364v-52q0 -326 -10 -452q-18 -190 -72 -286 q-138 -238 -488 -238q-298 0 -434 145t-136 457zM598 1500l282 292q56 58 94 58q72 0 72 -70q0 -42 -60 -80l-322 -200h-66z" />
<glyph unicode="&#xdb;" horiz-adv-x="1500" d="M182 576q0 12 3 150t3 262q0 162 -6 378q40 -8 88 -8q54 0 94 10l-8 -728q0 -152 14 -230q20 -128 86 -208q112 -136 328 -136q218 0 330 140q64 80 84 220q14 94 14 314q0 338 -8 626q30 -8 62 -8q36 0 66 8q-10 -258 -10 -364v-52q0 -326 -10 -452q-18 -190 -72 -286 q-138 -238 -488 -238q-298 0 -434 145t-136 457zM486 1500l226 340h116l226 -340h-56l-228 204l-228 -204h-56z" />
<glyph unicode="&#xdc;" horiz-adv-x="1500" d="M182 576q0 12 3 150t3 262q0 162 -6 378q40 -8 88 -8q54 0 94 10l-8 -728q0 -152 14 -230q20 -128 86 -208q112 -136 328 -136q218 0 330 140q64 80 84 220q14 94 14 314q0 338 -8 626q30 -8 62 -8q36 0 66 8q-10 -258 -10 -364v-52q0 -326 -10 -452q-18 -190 -72 -286 q-138 -238 -488 -238q-298 0 -434 145t-136 457zM502 1650q0 40 29 69t67 29q40 0 69 -29t29 -69q0 -42 -29 -70t-69 -28t-68 28t-28 70zM844 1650q0 40 30 69t68 29t67 -29t29 -69q0 -42 -28 -70t-68 -28t-69 28t-29 70z" />
<glyph unicode="&#xdd;" horiz-adv-x="1072" d="M-18 1366q48 -8 110 -8t110 8q158 -358 374 -678q208 336 360 678q34 -8 74 -8q42 0 74 8q-252 -408 -454 -774q-4 -140 -4 -212q0 -190 12 -380q-50 10 -90 10q-42 0 -92 -10q10 164 10 286q0 124 -10 274q-274 472 -474 806zM364 1500l282 292q56 58 94 58q72 0 72 -70 q0 -42 -60 -80l-322 -200h-66z" />
<glyph unicode="&#xde;" horiz-adv-x="1116" d="M176 0q12 328 12 682q0 368 -12 684q64 -4 92 -4q32 0 92 4q-2 -82 -2 -206q138 12 250 12q216 0 332 -92t116 -258q0 -402 -574 -402q-70 0 -132 4v-84q0 -158 10 -338q-60 8 -88 8q-42 0 -96 -10zM348 496q52 -4 90 -4q430 0 430 312q0 158 -92 224t-294 66 q-58 0 -124 -6q-10 -206 -10 -412v-180z" />
<glyph unicode="&#xdf;" horiz-adv-x="1090" d="M142 0q8 104 8 416l-2 634q0 212 106 331t292 119q138 0 215 -60t77 -162q0 -98 -84 -194l-78 -90q-70 -80 -70 -144q0 -70 120 -154q174 -120 214 -160q80 -80 80 -182q0 -150 -118 -262q-124 -114 -298 -114q-88 0 -174 46q30 72 46 152q100 -112 206 -112q92 0 150 56 t58 144q0 78 -58 148q-50 60 -166 138t-142 104q-56 56 -56 128q0 78 100 184q84 90 116 142q46 72 46 144q0 90 -52 145t-138 55q-166 0 -212 -170q-34 -122 -34 -544v-72q0 -456 14 -666q-24 2 -76 2q-58 0 -90 -2z" />
<glyph unicode="&#xe0;" horiz-adv-x="962" d="M70 228q0 210 232 260q110 22 222 44q94 20 126 48v42q0 134 -51 198t-171 64q-164 0 -258 -142h-16l4 106q134 112 322 112q168 0 242 -81t74 -255v-24l-8 -398q0 -68 10 -92q18 -40 78 -40q22 0 34 2l8 -40q-108 -32 -164 -32q-92 0 -110 116q-128 -134 -298 -134 q-276 0 -276 246zM206 1352q0 70 72 70q38 0 94 -58l282 -292h-66l-322 200q-60 38 -60 80zM234 254q0 -190 178 -190q112 0 200 88q34 34 34 86v258q-236 -40 -314 -80q-98 -50 -98 -162z" />
<glyph unicode="&#xe1;" horiz-adv-x="962" d="M70 228q0 210 232 260q110 22 222 44q94 20 126 48v42q0 134 -51 198t-171 64q-164 0 -258 -142h-16l4 106q134 112 322 112q168 0 242 -81t74 -255v-24l-8 -398q0 -68 10 -92q18 -40 78 -40q22 0 34 2l8 -40q-108 -32 -164 -32q-92 0 -110 116q-128 -134 -298 -134 q-276 0 -276 246zM234 254q0 -190 178 -190q112 0 200 88q34 34 34 86v258q-236 -40 -314 -80q-98 -50 -98 -162zM310 1072l282 292q56 58 94 58q72 0 72 -70q0 -42 -60 -80l-322 -200h-66z" />
<glyph unicode="&#xe2;" horiz-adv-x="962" d="M70 228q0 210 232 260q110 22 222 44q94 20 126 48v42q0 134 -51 198t-171 64q-164 0 -258 -142h-16l4 106q134 112 322 112q168 0 242 -81t74 -255v-24l-8 -398q0 -68 10 -92q18 -40 78 -40q22 0 34 2l8 -40q-108 -32 -164 -32q-92 0 -110 116q-128 -134 -298 -134 q-276 0 -276 246zM198 1072l226 340h116l226 -340h-56l-228 204l-228 -204h-56zM234 254q0 -190 178 -190q112 0 200 88q34 34 34 86v258q-236 -40 -314 -80q-98 -50 -98 -162z" />
<glyph unicode="&#xe3;" horiz-adv-x="962" d="M70 228q0 210 232 260q110 22 222 44q94 20 126 48v42q0 134 -51 198t-171 64q-164 0 -258 -142h-16l4 106q134 112 322 112q168 0 242 -81t74 -255v-24l-8 -398q0 -68 10 -92q18 -40 78 -40q22 0 34 2l8 -40q-108 -32 -164 -32q-92 0 -110 116q-128 -134 -298 -134 q-276 0 -276 246zM202 1118q36 206 192 206q32 0 62 -8l108 -28q38 -10 54 -10q66 0 92 84h52q-38 -200 -190 -200q-34 0 -72 10l-106 28q-22 6 -48 6q-70 0 -94 -88h-50zM234 254q0 -190 178 -190q112 0 200 88q34 34 34 86v258q-236 -40 -314 -80q-98 -50 -98 -162z" />
<glyph unicode="&#xe4;" horiz-adv-x="962" d="M70 228q0 210 232 260q110 22 222 44q94 20 126 48v42q0 134 -51 198t-171 64q-164 0 -258 -142h-16l4 106q134 112 322 112q168 0 242 -81t74 -255v-24l-8 -398q0 -68 10 -92q18 -40 78 -40q22 0 34 2l8 -40q-108 -32 -164 -32q-92 0 -110 116q-128 -134 -298 -134 q-276 0 -276 246zM214 1222q0 40 29 69t67 29q40 0 69 -29t29 -69q0 -42 -29 -70t-69 -28t-68 28t-28 70zM234 254q0 -190 178 -190q112 0 200 88q34 34 34 86v258q-236 -40 -314 -80q-98 -50 -98 -162zM556 1222q0 40 30 69t68 29t67 -29t29 -69q0 -42 -28 -70t-68 -28 t-69 28t-29 70z" />
<glyph unicode="&#xe5;" horiz-adv-x="962" d="M70 228q0 210 232 260q110 22 222 44q94 20 126 48v42q0 134 -51 198t-171 64q-164 0 -258 -142h-16l4 106q134 112 322 112q168 0 242 -81t74 -255v-24l-8 -398q0 -68 10 -92q18 -40 78 -40q22 0 34 2l8 -40q-108 -32 -164 -32q-92 0 -110 116q-128 -134 -298 -134 q-276 0 -276 246zM234 254q0 -190 178 -190q112 0 200 88q34 34 34 86v258q-236 -40 -314 -80q-98 -50 -98 -162zM244 1258q0 104 73 177t177 73q108 0 173 -64t65 -166q0 -106 -73 -178t-179 -72q-104 0 -170 65t-66 165zM334 1254q0 -164 148 -164q158 0 158 190 q0 168 -148 168q-72 0 -115 -51t-43 -143z" />
<glyph unicode="&#xe6;" horiz-adv-x="1518" d="M64 228q0 210 232 260q110 22 222 44q94 20 126 48v42q0 134 -51 198t-171 64q-164 0 -258 -142h-16l6 106q130 112 320 112t280 -142q126 146 318 146q180 0 283 -107t103 -299q0 -22 -4 -74h-668v-28q0 -182 86 -283t236 -101q182 0 310 134l-12 -108 q-146 -118 -350 -118q-142 0 -242 64t-130 172q-72 -238 -346 -238q-128 0 -201 67t-73 183zM224 248q0 -84 48 -134t128 -50q246 0 246 292v24l-4 114q-230 -30 -318 -78q-100 -54 -100 -168zM786 554h514v36q0 148 -65 230t-179 82q-112 0 -189 -95t-81 -253z" />
<glyph unicode="&#xe7;" horiz-adv-x="926" d="M70 470q0 224 136 358t360 134q172 0 326 -80q-32 -74 -54 -172q-84 188 -272 188q-158 0 -246 -111t-88 -315q0 -196 95 -309t253 -113q160 0 302 144q-4 -56 -4 -74q0 -28 2 -40q-128 -100 -342 -100q-210 0 -339 134t-129 356zM286 -366l30 66q130 -56 224 -56 q118 0 118 90q0 88 -114 88q-24 0 -58 -6v184h62v-110q30 6 60 6q82 0 130 -42t48 -112q0 -170 -208 -170q-124 0 -292 62z" />
<glyph unicode="&#xe8;" horiz-adv-x="1012" d="M72 470q0 224 126 359t334 135q192 0 297 -113t105 -323v-22q-2 -14 -2 -22h-688v-6q0 -416 336 -416q172 0 308 134q-4 -52 -4 -76v-24q-156 -114 -340 -114q-210 0 -341 136t-131 352zM230 1352q0 70 72 70q38 0 94 -58l282 -292h-66l-322 200q-60 38 -60 80zM248 554 h526v34q0 148 -67 231t-183 83q-114 0 -192 -92q-78 -98 -84 -256z" />
<glyph unicode="&#xe9;" horiz-adv-x="1012" d="M72 470q0 224 126 359t334 135q192 0 297 -113t105 -323v-22q-2 -14 -2 -22h-688v-6q0 -416 336 -416q172 0 308 134q-4 -52 -4 -76v-24q-156 -114 -340 -114q-210 0 -341 136t-131 352zM248 554h526v34q0 148 -67 231t-183 83q-114 0 -192 -92q-78 -98 -84 -256z M334 1072l282 292q56 58 94 58q72 0 72 -70q0 -42 -60 -80l-322 -200h-66z" />
<glyph unicode="&#xea;" horiz-adv-x="1012" d="M72 470q0 224 126 359t334 135q192 0 297 -113t105 -323v-22q-2 -14 -2 -22h-688v-6q0 -416 336 -416q172 0 308 134q-4 -52 -4 -76v-24q-156 -114 -340 -114q-210 0 -341 136t-131 352zM222 1072l226 340h116l226 -340h-56l-228 204l-228 -204h-56zM248 554h526v34 q0 148 -67 231t-183 83q-114 0 -192 -92q-78 -98 -84 -256z" />
<glyph unicode="&#xeb;" horiz-adv-x="1012" d="M72 470q0 224 126 359t334 135q192 0 297 -113t105 -323v-22q-2 -14 -2 -22h-688v-6q0 -416 336 -416q172 0 308 134q-4 -52 -4 -76v-24q-156 -114 -340 -114q-210 0 -341 136t-131 352zM238 1222q0 40 29 69t67 29q40 0 69 -29t29 -69q0 -42 -29 -70t-69 -28t-68 28 t-28 70zM248 554h526v34q0 148 -67 231t-183 83q-114 0 -192 -92q-78 -98 -84 -256zM580 1222q0 40 30 69t68 29t67 -29t29 -69q0 -42 -28 -70t-68 -28t-69 28t-29 70z" />
<glyph unicode="&#xec;" horiz-adv-x="496" d="M-28 1352q0 70 72 70q38 0 94 -58l282 -292h-66l-322 200q-60 38 -60 80zM166 0q10 274 10 496q0 204 -10 448q38 -8 82 -8q48 0 82 8q-10 -246 -10 -448q0 -222 10 -496q-44 10 -82 10q-36 0 -82 -10z" />
<glyph unicode="&#xed;" horiz-adv-x="496" d="M76 1072l282 292q56 58 94 58q72 0 72 -70q0 -42 -60 -80l-322 -200h-66zM166 0q10 274 10 496q0 204 -10 448q38 -8 82 -8q48 0 82 8q-10 -246 -10 -448q0 -222 10 -496q-44 10 -82 10q-36 0 -82 -10z" />
<glyph unicode="&#xee;" horiz-adv-x="496" d="M-36 1072l226 340h116l226 -340h-56l-228 204l-228 -204h-56zM166 0q10 274 10 496q0 204 -10 448q38 -8 82 -8q48 0 82 8q-10 -246 -10 -448q0 -222 10 -496q-44 10 -82 10q-36 0 -82 -10z" />
<glyph unicode="&#xef;" horiz-adv-x="496" d="M-20 1222q0 40 29 69t67 29q40 0 69 -29t29 -69q0 -42 -29 -70t-69 -28t-68 28t-28 70zM166 0q10 274 10 496q0 204 -10 448q38 -8 82 -8q48 0 82 8q-10 -246 -10 -448q0 -222 10 -496q-44 10 -82 10q-36 0 -82 -10zM322 1222q0 40 30 69t68 29t67 -29t29 -69 q0 -42 -28 -70t-68 -28t-69 28t-29 70z" />
<glyph unicode="&#xf0;" horiz-adv-x="1092" d="M72 472q0 216 133 353t341 137q98 0 176 -32q-84 104 -256 262q-94 -80 -212 -188l-44 54q100 86 206 180q-104 104 -194 178l90 84q94 -108 182 -194q108 90 198 176l46 -58q-88 -66 -196 -168q246 -228 356 -400q122 -192 122 -384q0 -220 -134 -355t-340 -135 q-208 0 -341 136t-133 354zM242 474q0 -432 304 -432t304 432q0 206 -80 317t-226 111q-302 0 -302 -428z" />
<glyph unicode="&#xf1;" horiz-adv-x="1094" d="M150 0q8 112 8 348v142q0 312 -8 454q38 -8 82 -8q46 0 78 8q-4 -72 -4 -102q0 -12 2 -36v-36q114 194 314 194q320 0 320 -358q0 -50 -2 -147t-2 -143q0 -148 6 -316q-46 10 -82 10t-82 -10q12 210 12 566q0 296 -228 296q-118 0 -186 -86t-68 -312v-90q0 -272 6 -374 q-46 10 -84 10q-36 0 -82 -10zM268 1118q36 206 192 206q32 0 62 -8l108 -28q38 -10 54 -10q66 0 92 84h52q-38 -200 -190 -200q-34 0 -72 10l-106 28q-22 6 -48 6q-70 0 -94 -88h-50z" />
<glyph unicode="&#xf2;" horiz-adv-x="1092" d="M72 472q0 216 135 353t339 137q210 0 342 -136t132 -354q0 -220 -134 -355t-340 -135q-208 0 -341 136t-133 354zM242 474q0 -432 304 -432t304 418q0 442 -306 442q-302 0 -302 -428zM270 1352q0 70 72 70q38 0 94 -58l282 -292h-66l-322 200q-60 38 -60 80z" />
<glyph unicode="&#xf3;" horiz-adv-x="1092" d="M72 472q0 216 135 353t339 137q210 0 342 -136t132 -354q0 -220 -134 -355t-340 -135q-208 0 -341 136t-133 354zM242 474q0 -432 304 -432t304 418q0 442 -306 442q-302 0 -302 -428zM374 1072l282 292q56 58 94 58q72 0 72 -70q0 -42 -60 -80l-322 -200h-66z" />
<glyph unicode="&#xf4;" horiz-adv-x="1092" d="M72 472q0 216 135 353t339 137q210 0 342 -136t132 -354q0 -220 -134 -355t-340 -135q-208 0 -341 136t-133 354zM242 474q0 -432 304 -432t304 418q0 442 -306 442q-302 0 -302 -428zM262 1072l226 340h116l226 -340h-56l-228 204l-228 -204h-56z" />
<glyph unicode="&#xf5;" horiz-adv-x="1092" d="M72 472q0 216 135 353t339 137q210 0 342 -136t132 -354q0 -220 -134 -355t-340 -135q-208 0 -341 136t-133 354zM242 474q0 -432 304 -432t304 418q0 442 -306 442q-302 0 -302 -428zM266 1118q36 206 192 206q32 0 62 -8l108 -28q38 -10 54 -10q66 0 92 84h52 q-38 -200 -190 -200q-34 0 -72 10l-106 28q-22 6 -48 6q-70 0 -94 -88h-50z" />
<glyph unicode="&#xf6;" horiz-adv-x="1092" d="M72 472q0 216 135 353t339 137q210 0 342 -136t132 -354q0 -220 -134 -355t-340 -135q-208 0 -341 136t-133 354zM242 474q0 -432 304 -432t304 418q0 442 -306 442q-302 0 -302 -428zM278 1222q0 40 29 69t67 29q40 0 69 -29t29 -69q0 -42 -29 -70t-69 -28t-68 28 t-28 70zM620 1222q0 40 30 69t68 29t67 -29t29 -69q0 -42 -28 -70t-68 -28t-69 28t-29 70z" />
<glyph unicode="&#xf7;" horiz-adv-x="1666" d="M248 548v96h1170v-96h-1170zM730 252q0 44 31 74t73 30q44 0 74 -30t30 -74q0 -42 -30 -73t-74 -31t-74 30t-30 74zM730 940q0 44 31 75t73 31q44 0 74 -31t30 -75q0 -42 -30 -73t-74 -31t-74 30t-30 74z" />
<glyph unicode="&#xf8;" horiz-adv-x="1092" d="M32 -82q78 78 174 200q-134 134 -134 354q0 216 135 353t339 137q156 0 278 -84q66 88 138 192q40 -38 76 -50q-104 -114 -160 -188q142 -136 142 -360q0 -220 -134 -355t-340 -135q-174 0 -288 90q-108 -136 -156 -208q-30 36 -70 54zM242 474q0 -156 42 -260l478 586 q-68 102 -218 102q-302 0 -302 -428zM320 148q84 -106 226 -106q304 0 304 432q0 148 -50 262z" />
<glyph unicode="&#xf9;" d="M150 308q0 16 5 171t5 295q0 62 -4 170q34 -8 80 -8t86 8q-30 -284 -30 -564q0 -308 234 -308q166 0 230 144q36 80 36 482q0 126 -10 246q38 -8 84 -8q44 0 78 8q-8 -152 -8 -560q0 -232 6 -384q-40 4 -64 4q-44 0 -90 -6v36q0 30 -4 126q-100 -182 -320 -182 q-314 0 -314 330zM274 1352q0 70 72 70q38 0 94 -58l282 -292h-66l-322 200q-60 38 -60 80z" />
<glyph unicode="&#xfa;" d="M150 308q0 16 5 171t5 295q0 62 -4 170q34 -8 80 -8t86 8q-30 -284 -30 -564q0 -308 234 -308q166 0 230 144q36 80 36 482q0 126 -10 246q38 -8 84 -8q44 0 78 8q-8 -152 -8 -560q0 -232 6 -384q-40 4 -64 4q-44 0 -90 -6v36q0 30 -4 126q-100 -182 -320 -182 q-314 0 -314 330zM378 1072l282 292q56 58 94 58q72 0 72 -70q0 -42 -60 -80l-322 -200h-66z" />
<glyph unicode="&#xfb;" d="M150 308q0 16 5 171t5 295q0 62 -4 170q34 -8 80 -8t86 8q-30 -284 -30 -564q0 -308 234 -308q166 0 230 144q36 80 36 482q0 126 -10 246q38 -8 84 -8q44 0 78 8q-8 -152 -8 -560q0 -232 6 -384q-40 4 -64 4q-44 0 -90 -6v36q0 30 -4 126q-100 -182 -320 -182 q-314 0 -314 330zM266 1072l226 340h116l226 -340h-56l-228 204l-228 -204h-56z" />
<glyph unicode="&#xfc;" d="M150 308q0 16 5 171t5 295q0 62 -4 170q34 -8 80 -8t86 8q-30 -284 -30 -564q0 -308 234 -308q166 0 230 144q36 80 36 482q0 126 -10 246q38 -8 84 -8q44 0 78 8q-8 -152 -8 -560q0 -232 6 -384q-40 4 -64 4q-44 0 -90 -6v36q0 30 -4 126q-100 -182 -320 -182 q-314 0 -314 330zM282 1222q0 40 29 69t67 29q40 0 69 -29t29 -69q0 -42 -29 -70t-69 -28t-68 28t-28 70zM624 1222q0 40 30 69t68 29t67 -29t29 -69q0 -42 -28 -70t-68 -28t-69 28t-29 70z" />
<glyph unicode="&#xfd;" horiz-adv-x="934" d="M20 944q42 -8 98 -8q54 0 96 8q52 -182 214 -580l70 -172l72 166q152 352 224 586q30 -8 68 -8q36 0 66 8q-60 -118 -190 -412l-268 -606q-146 -330 -182 -472q-32 6 -68 6q-34 0 -70 -6q100 168 220 446l46 106l-84 220q-60 156 -312 718zM296 1072l282 292q56 58 94 58 q72 0 72 -70q0 -42 -60 -80l-322 -200h-66z" />
<glyph unicode="&#xfe;" horiz-adv-x="1116" d="M154 -546q12 512 12 1038q0 616 -12 1008q38 -8 82 -8q46 0 86 8q-16 -376 -20 -736q118 202 336 202q194 0 299 -127t105 -369q0 -226 -116 -360t-296 -134q-212 0 -320 170v-240q0 -12 10 -452q-46 10 -82 10q-38 0 -84 -10zM298 470q0 -418 286 -418q138 0 213 109 t75 315q0 196 -76 301t-212 105q-132 0 -209 -107t-77 -305z" />
<glyph unicode="&#xff;" horiz-adv-x="934" d="M20 944q42 -8 98 -8q54 0 96 8q52 -182 214 -580l70 -172l72 166q152 352 224 586q30 -8 68 -8q36 0 66 8q-60 -118 -190 -412l-268 -606q-146 -330 -182 -472q-32 6 -68 6q-34 0 -70 -6q100 168 220 446l46 106l-84 220q-60 156 -312 718zM200 1222q0 40 29 69t67 29 q40 0 69 -29t29 -69q0 -42 -29 -70t-69 -28t-68 28t-28 70zM542 1222q0 40 30 69t68 29t67 -29t29 -69q0 -42 -28 -70t-68 -28t-69 28t-29 70z" />
<glyph unicode="&#x152;" horiz-adv-x="2004" d="M82 680q0 326 194 519t518 193q344 0 506 -186v160q94 -6 212 -6q142 0 432 6v-28q-2 -20 -2 -30q0 -8 2 -28v-30q-214 20 -438 20h-44l-4 -502h34q170 0 402 16q-2 -18 -2 -56q0 -40 2 -62q-84 16 -350 16h-86v-66q-2 -54 -2 -96q0 -66 4 -422h46q168 0 446 22v-30 q-2 -20 -2 -30t2 -30v-30q-100 4 -316 4q-226 0 -346 -4v168q-162 -194 -518 -194q-314 0 -502 191t-188 515zM280 682q0 -310 131 -472t379 -162q246 0 378 163t132 471q0 330 -120 483t-390 153q-242 0 -376 -166t-134 -470z" />
<glyph unicode="&#x153;" horiz-adv-x="1774" d="M74 462q0 224 139 362t367 138q236 0 358 -166q130 170 362 170q192 0 298 -110t106 -310q0 -40 -2 -60h-694v-20q-2 -12 -2 -20q0 -176 96 -283t252 -107q170 0 302 144l-4 -98q-116 -122 -336 -122q-264 0 -382 176q-146 -178 -400 -178q-204 0 -332 134t-128 350z M252 474q0 -432 306 -432q304 0 304 418q0 442 -306 442q-304 0 -304 -428zM1014 554h534v34q0 150 -67 232t-187 82q-118 0 -197 -95t-83 -253z" />
<glyph unicode="&#x178;" horiz-adv-x="1072" d="M-18 1366q48 -8 110 -8t110 8q158 -358 374 -678q208 336 360 678q34 -8 74 -8q42 0 74 8q-252 -408 -454 -774q-4 -140 -4 -212q0 -190 12 -380q-50 10 -90 10q-42 0 -92 -10q10 164 10 286q0 124 -10 274q-274 472 -474 806zM268 1650q0 40 29 69t67 29q40 0 69 -29 t29 -69q0 -42 -29 -70t-69 -28t-68 28t-28 70zM610 1650q0 40 30 69t68 29t67 -29t29 -69q0 -42 -28 -70t-68 -28t-69 28t-29 70z" />
<glyph unicode="&#x2c6;" horiz-adv-x="1000" d="M216 1072l226 340h116l226 -340h-56l-228 204l-228 -204h-56z" />
<glyph unicode="&#x2dc;" horiz-adv-x="1000" d="M220 1118q36 206 192 206q32 0 62 -8l108 -28q38 -10 54 -10q66 0 92 84h52q-38 -200 -190 -200q-34 0 -72 10l-106 28q-22 6 -48 6q-70 0 -94 -88h-50z" />
<glyph unicode="&#x2000;" horiz-adv-x="963" />
<glyph unicode="&#x2001;" horiz-adv-x="1926" />
<glyph unicode="&#x2002;" horiz-adv-x="963" />
<glyph unicode="&#x2003;" horiz-adv-x="1926" />
<glyph unicode="&#x2004;" horiz-adv-x="642" />
<glyph unicode="&#x2005;" horiz-adv-x="481" />
<glyph unicode="&#x2006;" horiz-adv-x="321" />
<glyph unicode="&#x2007;" horiz-adv-x="321" />
<glyph unicode="&#x2008;" horiz-adv-x="240" />
<glyph unicode="&#x2009;" horiz-adv-x="385" />
<glyph unicode="&#x200a;" horiz-adv-x="107" />
<glyph unicode="&#x2010;" horiz-adv-x="666" d="M88 420v128h490v-128h-490z" />
<glyph unicode="&#x2011;" horiz-adv-x="666" d="M88 420v128h490v-128h-490z" />
<glyph unicode="&#x2012;" horiz-adv-x="666" d="M88 420v128h490v-128h-490z" />
<glyph unicode="&#x2013;" horiz-adv-x="1000" d="M0 432v94h1000v-94h-1000z" />
<glyph unicode="&#x2014;" horiz-adv-x="2000" d="M0 432v94h2000v-94h-2000z" />
<glyph unicode="&#x2018;" horiz-adv-x="546" d="M144 920q0 30 26 74l236 398l28 -18l-124 -440q-26 -92 -90 -92q-76 0 -76 78z" />
<glyph unicode="&#x2019;" horiz-adv-x="546" d="M156 860l122 440q26 92 90 92q32 0 55 -22t23 -56q0 -30 -26 -74l-238 -396z" />
<glyph unicode="&#x201a;" horiz-adv-x="546" d="M88 -310l128 434q28 92 90 92q76 0 76 -78q0 -32 -26 -74l-238 -390z" />
<glyph unicode="&#x201c;" horiz-adv-x="872" d="M144 912q0 34 28 82l236 398l28 -18l-124 -440q-26 -90 -96 -90q-72 0 -72 68zM470 912q0 34 28 82l236 398l28 -18l-124 -440q-26 -90 -96 -90q-72 0 -72 68z" />
<glyph unicode="&#x201d;" horiz-adv-x="872" d="M156 860l122 440q26 92 90 92q32 0 55 -22t23 -56q0 -30 -26 -74l-238 -396zM482 860l122 440q26 92 90 92q32 0 55 -22t23 -56q0 -30 -26 -74l-238 -396z" />
<glyph unicode="&#x201e;" horiz-adv-x="872" d="M82 -310l128 434q28 92 90 92q76 0 76 -78q0 -34 -24 -74l-238 -390zM412 -310l128 434q28 92 90 92q76 0 76 -78q0 -34 -24 -74l-238 -390z" />
<glyph unicode="&#x2022;" horiz-adv-x="1180" d="M300 744q0 120 85 204t205 84q118 0 203 -84t85 -204q0 -118 -85 -204t-205 -86t-204 85t-84 205z" />
<glyph unicode="&#x2026;" horiz-adv-x="2000" d="M222 92q0 46 33 79t79 33t79 -33t33 -79q0 -44 -33 -77t-79 -33t-79 32t-33 78zM888 92q0 46 33 79t79 33t79 -33t33 -79q0 -44 -33 -77t-79 -33t-79 32t-33 78zM1556 92q0 46 33 79t79 33t79 -33t33 -79q0 -44 -33 -77t-79 -33t-79 32t-33 78z" />
<glyph unicode="&#x202f;" horiz-adv-x="385" />
<glyph unicode="&#x2039;" horiz-adv-x="472" d="M72 472l322 472l42 -54l-236 -418l236 -418l-42 -54z" />
<glyph unicode="&#x203a;" horiz-adv-x="472" d="M34 54l236 418l-236 418l42 54l322 -472l-322 -472z" />
<glyph unicode="&#x205f;" horiz-adv-x="481" />
<glyph unicode="&#x2122;" horiz-adv-x="1666" d="M258 1364v56h420v-56h-168v-462h-80v462h-172zM802 902v518h114l162 -412l152 412h114v-518h-70v456l-172 -456h-48l-182 456v-456h-70z" />
<glyph unicode="&#x25fc;" horiz-adv-x="940" d="M0 0v940h940v-940h-940z" />
<glyph unicode="&#xfb01;" horiz-adv-x="916" />
<glyph unicode="&#xfb02;" horiz-adv-x="972" />
</font>
</defs>
</svg>
